<?xml version="1.0" standalone="no"?>
<!DOCTYPE svg PUBLIC "-//W3C//DTD SVG 20010904//EN"
 "http://www.w3.org/TR/2001/REC-SVG-20010904/DTD/svg10.dtd">
<svg version="1.0" xmlns="http://www.w3.org/2000/svg"
 width="1779.000000pt" height="1779.000000pt" viewBox="0 0 1779.000000 1779.000000"
 preserveAspectRatio="xMidYMid meet">

<g transform="translate(0.000000,1779.000000) scale(0.100000,-0.100000)"
fill="#000000" stroke="none">
<path d="M8917 16763 c-4 -108 -7 -251 -7 -319 l0 -123 56 -7 c30 -3 59 -3 63
2 5 5 11 152 15 327 l6 317 -63 0 -64 0 -6 -197z"/>
<path d="M8305 16929 c-70 -24 -125 -73 -163 -144 -25 -46 -27 -60 -27 -160 1
-128 17 -175 85 -249 61 -66 128 -89 245 -84 76 3 101 9 162 37 115 54 116 56
108 206 l-7 127 -87 -6 c-47 -4 -110 -9 -138 -12 l-53 -5 0 -49 0 -49 77 -3
77 -3 4 -33 c4 -41 -6 -54 -63 -81 -49 -23 -124 -27 -173 -10 -83 29 -138 197
-101 310 27 79 112 128 202 116 32 -4 51 -15 80 -46 l38 -41 59 16 c55 16 58
18 49 41 -16 42 -53 84 -98 111 -63 37 -189 42 -276 11z"/>
<path d="M9420 16868 c-15 -35 -78 -169 -140 -298 -61 -129 -114 -240 -116
-246 -6 -13 40 -24 95 -24 35 0 37 2 68 71 l32 71 88 -6 c48 -4 106 -9 129
-12 l40 -5 22 -74 22 -75 50 -1 c28 -1 58 -2 68 -3 10 0 16 6 14 14 -1 8 -47
154 -101 324 -75 235 -103 312 -117 317 -11 4 -43 8 -72 8 l-53 1 -29 -62z
m120 -200 c17 -57 33 -109 35 -115 3 -10 -17 -13 -80 -13 -48 0 -85 4 -85 10
0 11 91 220 96 220 2 0 17 -46 34 -102z"/>
<path d="M10135 16816 c-110 -51 -179 -179 -179 -331 1 -179 111 -292 294
-303 195 -11 313 105 327 324 8 125 -27 211 -114 273 -88 64 -235 81 -328 37z
m237 -115 c62 -39 83 -94 75 -188 -9 -92 -49 -170 -102 -201 -33 -19 -50 -22
-99 -18 -63 5 -95 22 -130 70 -31 41 -35 163 -7 237 46 122 160 165 263 100z"/>
<path d="M7344 16821 c-142 -34 -225 -143 -226 -295 -1 -159 61 -279 173 -336
93 -48 229 -31 310 38 44 38 89 119 89 163 0 23 -5 27 -37 33 -81 13 -90 10
-97 -33 -17 -109 -143 -155 -227 -84 -70 59 -105 240 -64 327 44 92 202 106
247 22 l13 -24 52 22 c29 12 55 25 58 28 11 11 -24 66 -60 93 -61 47 -151 65
-231 46z"/>
<path d="M11058 16619 l-17 -50 24 -9 c14 -5 48 -16 77 -25 89 -26 89 -5 0
-281 -45 -137 -79 -250 -77 -253 11 -11 111 -39 116 -33 4 4 39 108 79 231 39
123 76 234 80 247 l9 23 87 -29 c48 -17 89 -30 90 -30 8 0 33 95 27 101 -7 6
-465 159 -476 159 -2 0 -10 -23 -19 -51z"/>
<path d="M6582 16625 c-64 -18 -100 -36 -141 -71 -72 -60 -107 -194 -81 -305
53 -224 211 -323 412 -258 61 19 82 32 129 78 69 70 84 116 76 234 -6 96 -28
160 -77 225 -68 90 -199 130 -318 97z m159 -121 c36 -18 85 -94 99 -155 28
-114 -6 -211 -85 -246 -116 -52 -223 15 -261 166 -20 80 -12 136 26 190 47 65
145 85 221 45z"/>
<path d="M6005 16418 c-27 -12 -52 -23 -54 -24 -2 -2 15 -51 38 -109 22 -59
41 -112 41 -119 0 -10 -228 -103 -234 -94 -1 1 -19 48 -40 103 -51 138 -44
131 -107 107 -34 -13 -54 -26 -53 -35 1 -8 50 -144 110 -301 121 -319 105
-297 192 -259 l40 18 -49 124 c-27 69 -49 127 -49 131 0 4 53 27 118 52 l117
45 12 -31 c7 -17 29 -74 49 -126 20 -52 38 -97 40 -99 6 -7 106 32 110 43 3 7
-41 131 -96 277 -56 145 -106 276 -112 292 -12 32 -10 32 -73 5z"/>
<path d="M11616 16160 c-59 -154 -110 -288 -113 -298 -4 -15 7 -24 52 -42 30
-12 57 -21 59 -19 2 2 25 61 52 131 l49 126 112 -41 c61 -23 114 -45 118 -48
3 -4 -15 -61 -40 -128 -25 -67 -45 -126 -45 -131 0 -8 110 -54 115 -48 15 18
224 593 218 598 -4 4 -30 15 -56 25 -58 22 -51 29 -104 -112 -33 -91 -40 -102
-58 -97 -44 14 -201 77 -209 85 -5 5 9 54 34 119 23 61 39 114 36 118 -7 7
-97 42 -107 42 -3 0 -54 -126 -113 -280z"/>
<path d="M12655 16179 c-27 -16 -54 -30 -60 -33 -14 -5 25 -34 58 -41 18 -5
37 -1 53 10 30 19 34 17 43 -27 5 -25 17 -38 49 -56 49 -27 49 -27 31 73 -10
61 -11 62 -58 84 -26 11 -52 21 -57 20 -5 -1 -31 -14 -59 -30z"/>
<path d="M12444 16040 c-151 -60 -260 -287 -210 -438 23 -68 85 -136 160 -175
55 -29 69 -32 151 -32 73 0 98 4 131 22 58 31 111 94 152 182 32 66 37 86 37
151 0 59 -5 85 -24 124 -70 142 -259 221 -397 166z m189 -114 c44 -18 95 -78
103 -121 17 -93 -54 -237 -140 -282 -102 -53 -245 34 -246 149 0 48 33 135 70
187 52 72 138 99 213 67z"/>
<path d="M5088 16004 c-27 -13 -48 -29 -48 -34 0 -9 265 -559 274 -567 2 -3
29 8 60 24 l56 28 -139 285 c-76 156 -143 285 -147 287 -5 1 -30 -9 -56 -23z"/>
<path d="M6750 15927 c-19 -6 -37 -12 -39 -13 -6 -5 20 -104 29 -109 16 -10
110 18 110 32 0 8 -5 34 -11 59 -12 48 -22 52 -89 31z"/>
<path d="M4585 15709 c-27 -18 -51 -33 -53 -34 -3 -3 22 -141 72 -400 19 -99
38 -201 41 -227 4 -27 10 -48 13 -48 14 0 112 65 112 75 -1 5 -7 39 -15 75 -7
36 -11 68 -7 72 4 3 43 28 87 55 44 27 90 56 102 63 24 15 21 16 118 -56 l30
-23 54 34 c29 19 55 36 57 38 3 2 -96 78 -218 168 -123 90 -245 181 -273 201
-27 21 -54 38 -60 38 -5 0 -32 -14 -60 -31z m182 -206 c49 -36 91 -69 95 -72
7 -6 -125 -91 -140 -91 -6 0 -52 198 -52 223 0 13 9 8 97 -60z"/>
<path d="M13127 15693 c-13 -21 -87 -140 -165 -264 -78 -125 -142 -231 -142
-235 0 -7 58 -46 91 -62 3 -1 50 68 104 155 54 87 104 165 111 173 12 12 14
-24 14 -230 l1 -245 54 -32 55 -31 11 21 c7 12 31 51 54 87 23 36 88 139 145
230 57 91 109 174 117 186 12 19 10 23 -38 53 -28 17 -53 30 -54 29 -2 -2 -37
-57 -77 -123 -41 -66 -90 -144 -109 -174 l-34 -54 -3 247 -2 247 -47 29 c-26
17 -50 30 -55 30 -4 0 -18 -17 -31 -37z"/>
<path d="M8645 15714 c-652 -33 -1203 -125 -1735 -291 -80 -25 -160 -50 -179
-55 -131 -38 -526 -197 -734 -296 -744 -353 -1332 -767 -1918 -1351 -550 -549
-947 -1098 -1293 -1790 -398 -794 -623 -1618 -697 -2551 -16 -200 -16 -771 0
-970 71 -903 291 -1726 663 -2483 32 -65 58 -120 58 -122 0 -10 173 -320 245
-440 127 -210 437 -654 506 -725 8 -8 32 -37 54 -65 202 -253 556 -617 840
-861 268 -230 622 -486 915 -661 225 -134 268 -158 470 -259 796 -398 1602
-623 2513 -700 236 -21 801 -23 1032 -5 1373 107 2620 585 3691 1416 491 380
948 850 1320 1355 702 952 1145 2084 1278 3265 42 368 54 926 27 1255 -66 825
-237 1517 -564 2276 -20 45 -81 172 -136 284 -474 947 -1143 1752 -2001 2405
-352 269 -848 565 -1245 745 -27 13 -79 36 -115 52 -122 56 -405 166 -555 216
-544 183 -1064 290 -1645 337 -181 15 -655 26 -795 19z m-1928 -488 c76 -40
291 -153 478 -251 431 -225 548 -286 560 -295 6 -4 71 -38 145 -75 74 -38 191
-98 260 -135 69 -37 202 -107 295 -155 94 -49 184 -97 200 -107 26 -16 55 -18
245 -18 1841 -1 3524 -942 4507 -2520 372 -597 634 -1325 732 -2030 40 -290
46 -389 46 -745 0 -367 -8 -484 -51 -773 -81 -554 -251 -1098 -494 -1581 -27
-55 -50 -103 -50 -106 0 -3 104 -5 230 -5 127 0 230 -3 230 -6 0 -3 -80 -104
-177 -223 -255 -312 -503 -618 -538 -662 l-30 -38 -170 -1 c-93 0 -174 -4
-180 -8 -5 -4 -35 -36 -65 -72 -72 -86 -366 -387 -444 -455 -6 -5 -32 -28 -57
-50 -182 -161 -524 -416 -686 -513 -210 -125 -286 -167 -468 -257 -582 -286
-1131 -445 -1805 -521 -196 -22 -632 -29 -861 -15 -1144 72 -2201 494 -3079
1229 -134 113 -562 537 -620 614 l-35 47 -219 3 -219 3 -51 66 c-28 37 -94
122 -146 190 -93 123 -240 313 -388 503 -42 55 -87 115 -100 133 l-23 33 256
0 c140 0 255 2 255 5 0 2 -25 55 -56 117 -699 1416 -727 3080 -77 4523 187
415 451 838 747 1195 38 47 85 102 105 122 l34 37 -19 103 c-27 148 -25 347 5
498 110 541 515 1127 1427 2060 94 96 177 183 185 192 8 10 17 17 21 18 3 0
69 -33 145 -74z"/>
<path d="M8692 13650 c-269 -11 -262 -10 -362 -93 -235 -197 -413 -384 -534
-562 -63 -92 -140 -251 -167 -345 -30 -106 -38 -335 -15 -449 70 -347 292
-712 765 -1261 69 -80 127 -147 130 -150 4 -3 28 -30 55 -60 102 -114 262
-286 401 -430 55 -58 150 -157 210 -220 61 -63 223 -232 361 -375 260 -268
312 -328 381 -430 145 -217 201 -393 191 -602 -20 -415 -375 -814 -1278 -1439
-319 -221 -382 -265 -567 -389 -105 -72 -220 -150 -256 -175 -35 -25 -104 -72
-153 -105 -49 -33 -91 -62 -94 -65 -3 -3 -22 -16 -42 -30 -21 -14 -38 -28 -38
-32 0 -5 123 -8 273 -8 290 0 337 -6 498 -61 186 -63 312 -166 383 -312 l39
-79 27 71 c76 194 185 288 408 349 l97 27 1781 3 1782 2 40 68 c261 440 471
1004 566 1522 63 347 80 570 73 977 -9 520 -73 902 -234 1398 -132 409 -400
937 -636 1255 -62 83 -160 213 -178 235 -503 611 -1112 1075 -1814 1380 -414
180 -910 312 -1355 360 -120 13 -532 38 -550 33 -3 -1 -87 -4 -188 -8z"/>
<path d="M5154 11838 c-339 -427 -637 -991 -799 -1513 -124 -402 -197 -810
-212 -1198 l-6 -167 2044 3 c1871 2 2049 4 2097 19 60 18 113 51 132 81 34 56
-4 175 -94 292 -152 195 -525 525 -1036 915 -18 14 -132 101 -254 194 -121 93
-266 204 -321 245 -55 42 -129 99 -165 127 -36 27 -103 79 -150 114 -254 193
-590 457 -800 629 -122 99 -359 302 -365 311 -11 18 -21 11 -71 -52z"/>
<path d="M4140 8749 c0 -199 33 -503 81 -759 42 -222 144 -583 221 -780 84
-218 244 -553 342 -717 l37 -63 1147 0 1147 1 -40 36 c-33 29 -380 314 -616
504 -32 26 -95 78 -141 116 -80 66 -180 148 -793 647 -154 125 -291 238 -305
250 -14 11 -59 48 -100 81 -41 33 -124 101 -185 151 -107 88 -757 617 -782
637 -10 7 -13 -15 -13 -104z"/>
<path d="M8470 8529 c-41 -10 -121 -31 -178 -45 l-102 -27 47 -48 c27 -27 55
-49 64 -49 18 0 330 118 342 129 11 11 -57 61 -80 60 -10 0 -52 -9 -93 -20z"/>
<path d="M7558 8306 c-180 -44 -328 -86 -328 -92 0 -17 190 -196 203 -191 26
11 336 129 505 193 56 21 102 42 102 45 0 9 -139 129 -148 128 -4 -1 -154 -38
-334 -83z"/>
<path d="M6575 8065 c-137 -34 -356 -88 -485 -119 -129 -31 -243 -60 -254 -64
-15 -6 17 -36 177 -165 l195 -158 88 34 c49 19 253 96 454 172 201 75 366 139
368 140 2 2 -52 53 -120 114 -91 82 -130 111 -148 110 -14 -1 -137 -29 -275
-64z"/>
<path d="M5625 5439 c108 -109 285 -256 520 -430 163 -121 450 -289 680 -400
498 -239 975 -377 1545 -446 185 -23 817 -25 1005 -5 834 93 1580 370 2252
838 178 124 523 412 577 482 l17 22 -1374 0 -1374 0 -7 -47 c-30 -223 -206
-421 -422 -477 -90 -23 -235 -21 -317 5 -212 66 -374 255 -403 472 l-7 47
-1376 0 -1375 0 59 -61z"/>
<path d="M4032 15317 c-33 -12 -281 -196 -282 -208 0 -3 38 -55 85 -115 l85
-108 -26 -21 -26 -21 24 -29 c25 -29 26 -29 53 -11 15 10 30 14 34 9 3 -5 41
-55 85 -111 l78 -102 42 33 c22 18 79 64 126 101 47 38 99 89 115 115 26 40
30 55 30 116 0 59 -5 81 -33 137 -38 77 -127 174 -187 203 -48 23 -157 30
-203 12z m138 -122 c15 -8 48 -38 72 -67 123 -147 125 -214 8 -305 -34 -26
-65 -49 -69 -51 -9 -3 -101 113 -101 127 0 5 20 26 45 47 25 20 45 41 45 47 0
6 -10 21 -21 33 l-21 23 -55 -41 c-52 -40 -54 -41 -68 -21 -8 11 -30 39 -49
62 -20 24 -36 46 -36 51 0 8 39 40 104 84 44 30 101 34 146 11z"/>
<path d="M13738 15167 c-186 -79 -285 -298 -206 -453 33 -62 102 -132 166
-167 42 -23 153 -56 188 -57 12 0 174 184 174 197 0 11 -195 173 -208 173 -5
0 -22 -17 -38 -37 l-28 -37 54 -47 55 -48 -21 -28 c-27 -36 -60 -39 -123 -12
-129 55 -159 177 -75 296 78 110 169 146 259 103 64 -31 100 -87 100 -154 0
-51 0 -51 50 -78 27 -14 53 -25 56 -22 4 2 13 28 19 57 16 78 -6 141 -76 216
-102 111 -230 147 -346 98z"/>
<path d="M4967 15109 l-46 -30 30 -50 c17 -27 33 -49 35 -49 2 0 26 14 53 30
l50 31 -31 49 c-17 28 -34 50 -38 50 -4 0 -27 -14 -53 -31z"/>
<path d="M3287 14656 c-83 -30 -167 -108 -209 -195 -68 -140 20 -338 187 -424
80 -41 184 -45 257 -9 111 55 213 193 225 304 4 43 4 43 -86 133 l-91 89 -36
-34 c-20 -19 -63 -66 -97 -104 l-61 -68 38 -35 38 -35 53 52 54 53 25 -24 c14
-13 26 -35 26 -49 0 -40 -34 -102 -73 -137 -86 -76 -170 -67 -273 29 -67 63
-88 105 -86 171 2 46 21 83 59 118 45 43 71 52 123 45 l48 -6 31 48 c17 27 31
51 31 54 0 10 -91 38 -119 38 -14 -1 -43 -7 -64 -14z"/>
<path d="M14420 14314 l-151 -308 48 -48 49 -48 304 136 c168 75 307 138 309
140 8 7 -65 83 -84 89 -14 4 -87 -27 -229 -95 -114 -56 -210 -99 -213 -96 -3
2 44 101 105 218 l110 213 -49 54 -48 53 -151 -308z"/>
<path d="M2759 14122 c-57 -62 -65 -48 111 -192 89 -73 159 -134 157 -136 -3
-4 -433 51 -469 60 -11 2 -29 -12 -52 -42 -20 -25 -36 -49 -36 -53 0 -9 464
-387 484 -395 14 -5 77 62 75 81 0 5 -70 66 -155 134 -85 68 -153 125 -151
127 2 2 106 -10 233 -26 126 -17 234 -30 239 -30 6 0 27 21 48 46 29 37 35 50
26 61 -12 14 -454 374 -475 386 -6 3 -22 -6 -35 -21z"/>
<path d="M15268 13993 c-32 -2 -58 -6 -58 -9 0 -3 12 -21 28 -40 22 -28 34
-34 66 -34 l39 0 -7 -39 c-5 -33 -1 -44 23 -75 l30 -37 20 69 c12 38 21 73 21
79 0 19 -72 93 -88 91 -9 -1 -43 -3 -74 -5z"/>
<path d="M15090 13859 c-63 -21 -208 -68 -322 -104 -115 -36 -208 -69 -208
-73 0 -4 18 -28 40 -54 l40 -47 72 25 c39 13 72 24 74 24 7 0 154 -190 154
-200 0 -6 -16 -40 -35 -73 l-34 -62 41 -53 c33 -42 44 -50 53 -40 21 23 325
575 325 589 -1 8 -20 35 -43 60 l-42 46 -115 -38z m-17 -215 c-32 -54 -62 -99
-68 -100 -11 -3 -109 115 -102 122 7 8 222 82 225 78 2 -1 -22 -47 -55 -100z"/>
<path d="M2239 13569 c-50 -53 -31 -127 26 -101 14 7 25 16 25 22 0 6 5 8 10
5 21 -13 10 -43 -21 -54 -50 -17 -144 -121 -168 -186 -53 -142 -4 -278 136
-371 192 -127 387 -77 482 125 34 73 36 184 4 246 -51 98 -200 198 -315 211
-49 6 -58 10 -58 26 0 34 -30 85 -56 97 -33 15 -32 15 -65 -20z m257 -264 c61
-36 120 -98 134 -141 26 -77 -14 -166 -91 -207 -42 -23 -119 -18 -175 11 -61
31 -131 99 -144 138 -27 82 10 176 85 215 53 27 129 21 191 -16z"/>
<path d="M2036 13450 c-74 -7 -85 -15 -130 -92 -14 -23 -15 -30 -5 -26 8 3 53
18 100 33 68 22 90 34 103 56 9 15 13 29 9 31 -5 2 -39 1 -77 -2z"/>
<path d="M14623 13392 l-42 -37 38 -44 39 -44 46 33 c25 19 46 37 46 41 0 12
-64 88 -75 88 -5 0 -29 -16 -52 -37z"/>
<path d="M15453 13347 c-62 -39 -167 -107 -235 -151 -68 -43 -138 -90 -156
-103 l-32 -24 31 -45 c20 -30 36 -43 46 -40 8 3 84 51 170 106 85 56 157 99
159 97 2 -2 -29 -73 -69 -158 -41 -85 -86 -182 -102 -216 l-27 -62 32 -51 c18
-27 35 -50 39 -50 3 0 42 24 87 53 44 28 154 99 243 157 90 58 172 112 184
121 l21 16 -30 47 c-16 25 -32 46 -36 46 -4 0 -82 -49 -174 -110 -93 -60 -170
-107 -172 -105 -3 2 43 102 100 222 103 214 105 218 89 246 -8 15 -25 38 -36
52 l-20 25 -112 -73z"/>
<path d="M1827 12959 c-11 -6 -25 -26 -33 -45 -19 -45 -2 -88 33 -81 28 5 28
7 -2 -53 l-25 -49 200 -101 c202 -103 250 -138 250 -183 -1 -35 -35 -102 -65
-125 -48 -38 -80 -30 -295 78 -110 55 -202 100 -205 100 -7 0 -58 -110 -54
-114 2 -2 97 -50 211 -106 177 -88 217 -104 266 -108 100 -7 170 46 228 171
59 130 38 219 -70 289 -34 22 -121 69 -193 106 -117 59 -133 70 -133 92 0 90
-61 159 -113 129z m62 -118 c-3 -6 -10 -7 -18 -2 -7 5 -10 14 -6 21 9 14 29
-2 24 -19z"/>
<path d="M16033 12540 c-24 -11 -43 -21 -43 -24 0 -3 16 -39 35 -82 19 -42 35
-80 35 -85 0 -4 -19 -17 -42 -28 -185 -84 -415 -194 -422 -201 -12 -12 33
-110 50 -110 7 0 70 27 140 60 69 33 128 60 130 60 2 0 45 20 95 45 51 25 97
45 104 45 7 0 28 -36 48 -80 20 -44 41 -80 47 -80 18 0 91 40 87 48 -2 4 -51
107 -107 230 -57 122 -106 222 -110 221 -3 0 -24 -9 -47 -19z"/>
<path d="M1575 12113 c-33 -9 -72 -41 -95 -77 -20 -34 -152 -347 -147 -352 2
-2 433 -177 530 -215 26 -11 51 -19 56 -19 8 0 51 90 51 107 0 4 -49 28 -108
51 -147 59 -141 54 -117 98 31 57 59 71 204 102 l135 28 28 68 c16 37 28 69
26 71 -9 9 -231 -40 -277 -61 -29 -13 -55 -24 -57 -24 -2 0 -4 23 -4 51 0 69
-24 114 -75 144 -42 25 -113 38 -150 28z m102 -155 c13 -12 23 -33 23 -50 0
-39 -62 -198 -77 -198 -7 0 -42 12 -78 26 -75 30 -74 21 -18 144 18 41 41 81
50 88 26 19 74 14 100 -10z"/>
<path d="M16590 11851 c0 -20 13 -41 25 -41 17 0 45 -33 45 -53 0 -24 -36 -40
-73 -31 -61 15 -94 0 -82 -35 5 -16 12 -20 26 -16 11 4 39 -1 63 -10 40 -16
46 -16 75 0 18 9 36 27 42 41 14 38 -6 98 -42 128 -30 25 -79 36 -79 17z"/>
<path d="M15958 11753 c-157 -3 -208 -6 -208 -16 0 -6 11 -34 23 -62 l24 -50
77 0 78 0 44 -110 c24 -60 44 -114 44 -120 0 -6 -24 -35 -54 -64 l-54 -53 21
-52 c11 -28 24 -55 29 -60 4 -6 42 23 90 70 294 282 408 395 408 403 0 6 -11
35 -24 66 l-25 55 -133 -2 c-73 -2 -226 -4 -340 -5z m270 -195 c-50 -46 -94
-83 -96 -83 -5 0 -61 134 -62 147 0 8 57 14 168 16 l82 2 -92 -82z"/>
<path d="M1196 11297 c-36 -128 -66 -238 -66 -244 0 -11 89 -38 97 -29 3 2 16
42 29 87 13 45 25 84 27 85 2 2 113 -28 246 -66 134 -39 249 -70 256 -70 12 0
51 107 43 116 -4 3 -447 133 -485 141 -13 3 -23 8 -23 12 0 4 11 45 24 91 14
47 24 85 23 86 -10 6 -74 24 -87 24 -14 0 -30 -46 -84 -233z"/>
<path d="M16310 11114 c-162 -47 -298 -89 -301 -92 -9 -9 25 -117 37 -116 44
5 604 172 604 180 0 21 -31 114 -38 113 -4 0 -140 -38 -302 -85z"/>
<path d="M1200 8365 c-107 -12 -215 -28 -240 -35 -103 -28 -149 -96 -150 -221
0 -128 44 -225 116 -255 47 -20 176 -17 383 6 96 11 175 21 176 22 4 4 -13
119 -17 122 -2 2 -57 -3 -123 -10 -344 -38 -378 -36 -409 25 -22 41 -20 109 4
148 24 40 49 47 255 68 88 9 179 18 203 22 l42 5 0 48 c0 60 -7 80 -29 79 -9
-1 -104 -11 -211 -24z"/>
<path d="M16444 8335 c-90 -40 -141 -178 -114 -309 30 -147 180 -201 283 -102
35 34 50 60 81 148 45 125 64 150 109 146 49 -5 80 -58 75 -126 -6 -66 -32
-102 -86 -122 l-42 -14 0 -63 c0 -35 3 -63 7 -63 4 0 33 7 65 16 44 13 67 27
97 59 49 54 65 106 66 215 0 75 -3 91 -27 132 -32 53 -81 88 -138 95 -116 16
-189 -46 -240 -206 -29 -90 -52 -131 -77 -137 -48 -12 -73 21 -73 97 0 56 23
95 65 110 35 13 35 13 35 76 0 62 0 63 -27 62 -16 0 -42 -7 -59 -14z"/>
<path d="M16295 7788 c-3 -7 -6 -33 -7 -57 l-3 -45 203 -35 c111 -19 199 -38
195 -42 -5 -4 -84 -37 -178 -73 -93 -37 -193 -76 -222 -88 l-51 -21 -11 -60
c-6 -34 -10 -62 -8 -63 2 -2 588 -104 617 -107 10 -1 17 14 23 51 5 30 6 56 3
59 -3 3 -92 21 -198 40 -105 18 -194 35 -195 37 -2 2 97 44 221 92 l224 89 12
63 c7 35 11 64 9 66 -6 4 -592 106 -613 106 -9 0 -19 -6 -21 -12z"/>
<path d="M1152 7697 l-284 -51 7 -44 c11 -71 13 -75 54 -68 20 3 109 19 199
35 90 16 162 25 160 21 -2 -4 -82 -77 -179 -164 l-176 -156 11 -63 c8 -44 16
-62 26 -60 26 3 615 106 617 108 7 5 -21 115 -29 115 -5 0 -97 -16 -205 -36
-107 -19 -197 -34 -199 -32 -2 2 70 68 159 146 223 193 211 179 200 244 -8 52
-9 53 -43 55 -19 0 -162 -22 -318 -50z"/>
<path d="M16295 7152 c-134 -46 -208 -160 -208 -317 0 -83 20 -130 82 -192 47
-47 101 -75 192 -98 167 -44 321 37 370 196 64 205 -32 362 -253 414 -81 19
-121 18 -183 -3z m198 -139 c130 -38 185 -169 114 -274 -34 -50 -79 -72 -147
-72 -191 2 -310 140 -240 277 45 89 132 111 273 69z"/>
<path d="M1545 7111 c-16 -5 -142 -32 -280 -61 -137 -29 -253 -55 -257 -59 -7
-6 13 -105 24 -116 3 -4 80 9 170 29 89 19 225 48 301 64 76 17 141 32 144 36
3 3 2 29 -3 58 -8 50 -11 53 -39 55 -16 1 -43 -2 -60 -6z"/>
<path d="M1585 6896 c-50 -34 -174 -120 -277 -191 -134 -92 -188 -135 -188
-149 0 -24 21 -97 32 -112 4 -6 54 -14 111 -18 56 -4 205 -16 331 -26 126 -11
230 -19 232 -17 1 1 -5 30 -13 64 l-16 62 -41 5 c-22 3 -133 10 -246 16 -113
7 -206 13 -208 14 -1 2 90 65 203 141 113 76 205 141 205 144 -1 3 -8 34 -18
68 l-17 61 -90 -62z"/>
<path d="M15987 6533 c-3 -4 -12 -32 -21 -61 -11 -40 -12 -54 -3 -57 7 -2 140
-43 297 -91 157 -48 290 -89 296 -91 10 -4 51 114 42 122 -2 1 -133 42 -293
90 -159 49 -295 90 -301 92 -7 2 -14 1 -17 -4z"/>
<path d="M1546 6239 c-154 -60 -281 -110 -282 -112 -3 -3 164 -446 171 -455 4
-4 95 37 95 43 0 3 -28 78 -61 166 -34 87 -60 161 -58 163 2 3 38 18 79 34 63
25 76 28 83 16 5 -8 31 -74 59 -147 27 -73 52 -134 53 -136 8 -7 95 32 95 43
-1 6 -25 74 -54 151 l-54 140 50 23 c82 36 81 37 134 -100 63 -166 72 -188 77
-188 2 0 25 7 51 16 37 13 46 20 41 33 -59 148 -155 404 -155 411 0 21 -55 4
-324 -101z"/>
<path d="M15923 6333 c-3 -10 -41 -109 -84 -221 -43 -112 -80 -210 -81 -218
-2 -11 13 -22 45 -34 l48 -18 11 26 c5 15 20 54 33 87 16 42 28 59 39 57 9 -2
120 -43 248 -92 127 -50 235 -87 239 -83 16 18 41 105 33 112 -5 5 -112 48
-239 96 -126 48 -234 90 -238 95 -5 4 5 43 22 86 17 44 31 82 31 86 0 9 -66
38 -87 38 -7 0 -16 -8 -20 -17z"/>
<path d="M1778 5693 c-153 -75 -278 -141 -278 -146 0 -7 30 -76 46 -105 1 -2
55 22 119 53 65 30 119 55 121 55 2 0 10 -13 19 -30 31 -59 20 -96 -80 -264
l-46 -79 27 -61 c14 -34 30 -65 34 -69 14 -16 144 205 155 266 l7 37 39 -34
c79 -72 169 -69 246 8 47 48 58 78 49 140 -7 45 -159 366 -173 366 -4 0 -133
-62 -285 -137z m301 -128 c46 -103 46 -122 4 -155 -34 -27 -69 -25 -98 4 -25
26 -95 157 -95 179 0 14 129 78 141 71 4 -2 26 -47 48 -99z"/>
<path d="M15615 5604 c-14 -31 -25 -61 -25 -67 0 -10 122 -145 383 -424 l77
-82 31 61 31 61 -55 56 -55 56 56 114 56 113 79 -4 78 -5 30 60 c17 32 29 60
27 62 -2 2 -131 13 -288 24 -157 11 -311 23 -342 26 l-58 6 -25 -57z m318 -92
l67 -7 -36 -75 c-19 -41 -38 -77 -40 -80 -3 -2 -19 11 -36 30 -17 19 -56 61
-87 93 l-56 58 60 -6 c33 -4 90 -10 128 -13z"/>
<path d="M2205 5200 c-46 -23 -85 -78 -92 -129 -2 -20 2 -65 10 -101 9 -36 21
-90 28 -120 16 -71 8 -104 -30 -120 -41 -16 -88 7 -124 62 -35 54 -35 103 -1
153 28 42 26 52 -21 111 l-23 29 -31 -29 c-49 -47 -74 -111 -68 -177 9 -97 98
-233 174 -265 71 -30 167 -9 220 48 50 54 55 130 18 274 -29 113 -30 127 -9
148 35 36 89 5 129 -73 19 -38 15 -84 -11 -112 -14 -16 -13 -21 11 -63 15 -25
32 -49 38 -53 16 -10 75 61 87 106 13 51 5 100 -28 166 -37 74 -77 121 -125
144 -54 26 -101 27 -152 1z"/>
<path d="M15479 5207 c-146 -41 -238 -211 -195 -360 41 -141 247 -273 393
-253 103 14 194 90 234 195 34 90 18 177 -46 256 l-25 30 -46 -46 -47 -47 28
-36 c72 -95 19 -214 -99 -224 -46 -4 -66 1 -118 25 -115 54 -168 116 -168 196
0 81 75 154 147 143 30 -4 32 -2 47 42 21 60 20 82 -1 82 -10 0 -27 2 -38 5
-11 2 -41 -2 -66 -8z"/>
<path d="M2388 4597 c-141 -89 -260 -165 -264 -169 -6 -7 53 -108 64 -108 5 0
240 147 362 225 19 13 67 43 107 67 l72 45 -32 51 c-17 29 -36 52 -42 51 -5 0
-126 -73 -267 -162z"/>
<path d="M15093 4702 c-18 -26 -33 -50 -33 -54 0 -4 28 -27 63 -51 259 -182
443 -310 452 -313 14 -5 80 95 69 105 -12 11 -512 361 -516 361 -2 0 -18 -21
-35 -48z"/>
<path d="M2693 4587 l-36 -34 58 -73 c49 -61 56 -75 44 -84 -9 -6 -104 -80
-212 -164 l-196 -153 36 -50 c21 -27 40 -49 43 -49 5 0 114 84 314 242 54 43
102 78 106 78 4 0 31 -31 61 -70 29 -38 55 -70 57 -70 7 0 82 55 82 61 0 3
-45 63 -101 135 -55 71 -124 159 -152 197 -28 37 -55 67 -59 67 -5 0 -25 -15
-45 -33z"/>
<path d="M14942 4496 l-32 -45 166 -130 c91 -72 160 -131 152 -131 -7 0 -118
12 -246 26 l-234 27 -38 -44 c-22 -24 -39 -47 -40 -51 0 -3 108 -90 240 -193
132 -102 242 -190 245 -196 4 -5 10 -9 15 -9 9 0 70 79 70 91 0 4 -70 62 -156
129 -85 67 -154 124 -151 126 2 2 104 -8 227 -21 123 -14 231 -25 239 -24 9 0
33 22 53 49 l37 48 -42 35 c-44 35 -339 266 -415 323 -24 19 -47 34 -51 34 -4
0 -22 -20 -39 -44z"/>
<path d="M3068 4194 c-5 -8 -128 -391 -128 -398 0 -2 -42 -39 -92 -81 -51 -43
-99 -84 -106 -90 -11 -10 -6 -20 24 -56 20 -24 39 -45 43 -47 4 -1 52 36 108
82 l102 85 203 26 c112 15 209 28 216 31 14 4 10 11 -50 83 l-28 33 -142 -25
c-79 -13 -144 -24 -145 -23 -1 1 18 59 43 130 24 70 44 136 44 145 -1 20 -85
117 -92 105z"/>
<path d="M14538 3984 l-37 -46 158 -133 c182 -153 211 -185 211 -226 0 -90
-105 -163 -178 -125 -17 9 -64 44 -104 78 -41 35 -96 81 -123 103 -27 22 -67
56 -88 75 l-40 35 -38 -45 c-22 -25 -39 -49 -38 -55 0 -13 288 -252 353 -292
99 -62 183 -52 271 33 94 92 130 182 105 260 -7 21 -34 60 -59 87 -50 54 -335
297 -348 297 -4 0 -25 -21 -45 -46z"/>
<path d="M14106 3531 l-69 -69 107 -189 c58 -105 106 -193 106 -196 0 -7 -28
9 -238 138 l-144 88 -69 -69 -68 -69 101 -105 c194 -203 340 -350 347 -350 4
0 24 18 45 39 l39 40 -139 143 c-77 79 -144 147 -149 153 -52 51 -43 54 30 8
373 -232 344 -217 368 -197 24 20 67 65 67 70 0 2 -54 96 -119 211 -66 114
-118 209 -117 211 2 2 208 -204 314 -314 19 -20 24 -18 66 25 l38 39 -149 154
c-82 84 -183 188 -224 231 l-74 78 -69 -70z"/>
<path d="M3603 3460 c-104 -21 -210 -108 -263 -216 -30 -61 -32 -72 -28 -143
3 -45 12 -90 22 -110 26 -49 103 -129 156 -159 39 -24 56 -27 130 -27 75 0 91
3 138 30 65 35 157 133 186 195 29 62 29 178 0 240 -59 128 -215 215 -341 190z
m172 -155 c100 -75 92 -201 -18 -302 -61 -56 -103 -76 -159 -77 -86 0 -167 81
-168 169 0 73 91 194 173 231 50 22 128 13 172 -21z"/>
<path d="M13562 3062 c-39 -31 -71 -60 -71 -64 -1 -4 35 -87 80 -185 113 -249
110 -232 36 -179 -179 131 -292 211 -299 214 -7 3 -141 -104 -145 -117 -2 -6
45 -65 295 -374 l103 -127 44 37 c25 20 45 39 45 40 0 2 -66 84 -146 184 -80
99 -145 182 -143 184 2 2 91 -62 197 -142 215 -160 191 -152 265 -90 l27 23
-91 195 c-50 106 -97 210 -105 229 -15 35 -15 35 4 15 11 -11 79 -94 151 -185
73 -91 135 -166 139 -167 4 -2 26 14 50 35 l43 37 -102 125 c-56 69 -144 178
-195 242 -52 64 -97 119 -102 122 -5 3 -40 -21 -80 -52z"/>
<path d="M4107 3068 c-19 -24 -76 -97 -128 -164 -52 -66 -125 -160 -163 -208
-37 -48 -66 -88 -65 -90 2 -1 25 -19 50 -39 l47 -37 77 97 c43 54 82 102 86
107 5 5 54 -26 115 -72 l106 -82 32 42 32 42 -100 79 c-56 44 -103 81 -105 83
-5 5 21 43 60 87 l34 37 120 -96 119 -96 33 38 c18 22 33 42 33 45 0 8 -333
269 -344 269 -3 0 -20 -19 -39 -42z"/>
<path d="M4687 2649 c-16 -21 -26 -43 -22 -49 3 -5 37 -28 75 -52 39 -24 70
-47 70 -51 0 -5 -44 -77 -98 -160 -54 -84 -117 -181 -140 -216 -23 -36 -42
-68 -42 -73 0 -4 23 -21 52 -37 l52 -30 106 162 c58 89 121 188 140 219 19 32
40 58 47 58 6 0 42 -20 80 -45 37 -25 71 -45 75 -45 7 0 58 74 58 83 0 3 -30
24 -67 48 -38 23 -125 80 -195 126 -176 114 -158 108 -191 62z"/>
<path d="M12912 2591 c-142 -53 -222 -158 -222 -291 0 -72 18 -124 70 -203
124 -187 338 -209 496 -51 66 65 87 121 82 214 -14 229 -235 402 -426 331z
m147 -120 c119 -61 189 -242 128 -332 -46 -68 -137 -96 -210 -65 -80 34 -159
156 -159 246 0 123 132 206 241 151z"/>
<path d="M5124 2277 c-31 -61 -97 -190 -146 -285 -50 -95 -88 -174 -87 -175 2
-1 29 -14 60 -29 l55 -26 59 118 60 118 37 -19 c58 -29 67 -53 87 -208 10 -78
19 -143 22 -145 2 -2 33 -18 68 -36 l64 -32 -7 92 c-9 123 -19 173 -47 244 -2
6 25 8 63 7 l68 -2 49 49 c40 40 51 58 56 95 10 66 -2 104 -47 147 -35 35
-176 115 -310 177 l-48 23 -56 -113z m216 -88 c92 -48 113 -68 113 -111 0 -37
-41 -78 -77 -78 -19 0 -175 70 -195 87 -7 6 62 143 72 143 5 0 44 -18 87 -41z"/>
<path d="M12355 2266 c-192 -60 -264 -246 -172 -439 64 -135 140 -196 255
-205 83 -5 136 8 199 52 70 48 104 109 111 194 3 46 1 72 -7 76 -6 4 -36 4
-66 1 l-55 -7 0 -50 c0 -71 -24 -116 -74 -139 -23 -10 -54 -19 -69 -19 -86 0
-176 107 -207 246 -28 126 110 229 217 163 37 -23 39 -22 107 34 l28 24 -36
28 c-69 53 -149 67 -231 41z"/>
<path d="M5927 2017 c-22 -20 -244 -234 -364 -351 -62 -60 -110 -113 -107
-117 6 -11 92 -49 110 -49 7 0 19 8 26 18 8 9 30 32 50 50 l36 34 116 -54 116
-53 -6 -80 -6 -80 61 -27 c43 -18 63 -23 66 -15 4 13 35 588 35 644 0 30 -5
35 -59 63 -48 24 -63 27 -74 17z m6 -219 c-3 -29 -8 -83 -12 -121 l-6 -68 -78
38 -79 38 84 83 c45 45 86 82 89 82 3 0 4 -24 2 -52z"/>
<path d="M11509 1887 c-122 -44 -249 -100 -249 -109 0 -8 229 -579 235 -586 5
-6 281 111 313 133 92 63 124 176 86 306 -66 223 -211 319 -385 256z m152
-119 c52 -35 112 -162 117 -248 4 -63 3 -68 -26 -95 -25 -24 -149 -85 -172
-85 -7 0 -160 370 -160 388 0 14 130 61 171 61 21 1 50 -8 70 -21z"/>
<path d="M6221 1571 c-56 -163 -101 -301 -101 -307 0 -9 100 -47 107 -40 2 1
30 83 64 182 33 98 64 184 68 192 4 7 29 -84 56 -205 27 -120 52 -228 56 -239
5 -15 25 -27 64 -39 30 -10 58 -16 61 -13 7 7 204 579 204 593 0 10 -100 49
-107 41 -1 -1 -34 -92 -72 -202 -53 -152 -70 -193 -75 -174 -20 86 -50 218
-67 300 -36 174 -32 166 -98 188 l-58 20 -102 -297z"/>
<path d="M11097 1743 c-38 -11 -47 -18 -42 -31 17 -44 105 -366 103 -374 -2
-5 -84 64 -183 155 l-179 164 -51 -15 c-27 -8 -54 -18 -58 -22 -7 -7 61 -264
145 -542 22 -74 25 -76 89 -56 24 7 39 17 39 27 0 9 -22 95 -50 190 -27 95
-50 178 -50 183 0 10 24 -10 229 -196 l132 -119 56 16 c30 9 58 18 60 21 3 3
-34 140 -81 305 -47 166 -86 303 -86 306 0 8 -20 4 -73 -12z"/>
<path d="M6974 1640 c-42 -13 -101 -80 -110 -124 -17 -93 35 -167 172 -241 81
-44 124 -83 124 -112 0 -28 -56 -73 -92 -73 -90 0 -150 44 -163 119 -6 37 -10
41 -43 46 -20 4 -47 8 -59 11 -22 4 -23 1 -23 -48 1 -135 103 -223 272 -235
86 -6 125 4 171 46 54 49 75 122 56 193 -13 52 -72 110 -155 153 -99 52 -134
81 -134 115 0 35 23 50 75 50 72 0 131 -40 137 -95 3 -25 8 -30 43 -37 22 -4
50 -10 63 -13 20 -5 22 -2 22 41 0 119 -99 199 -260 209 -36 3 -79 0 -96 -5z"/>
<path d="M10301 1549 c-51 -10 -57 -16 -65 -73 -4 -22 -29 -168 -57 -324 -28
-156 -50 -285 -47 -287 2 -3 32 1 65 7 l62 11 10 62 c6 34 11 69 11 77 0 12
26 21 113 37 61 12 121 21 133 21 14 0 30 -17 55 -60 38 -66 47 -70 130 -47
l46 12 -104 160 c-57 88 -141 217 -185 288 -87 137 -81 133 -167 116z m115
-265 c31 -52 55 -96 53 -98 -5 -3 -163 -35 -166 -33 -1 2 6 49 33 205 3 18 9
30 14 27 5 -3 35 -49 66 -101z"/>
<path d="M7485 1528 c-23 -97 -115 -592 -112 -601 2 -6 29 -17 60 -23 55 -11
58 -10 62 10 3 11 14 63 24 114 10 51 21 95 23 97 2 3 39 -2 82 -10 145 -28
206 -17 263 48 36 41 59 126 49 180 -9 46 -44 97 -83 119 -22 14 -325 87 -360
88 -2 0 -5 -10 -8 -22z m196 -127 c71 -15 119 -44 120 -73 5 -96 -37 -125
-155 -106 -39 6 -74 14 -79 18 -4 3 -1 40 8 81 20 95 23 102 38 96 7 -2 37
-10 68 -16z"/>
<path d="M9495 1440 c-104 -10 -196 -19 -202 -19 -9 -1 -13 -19 -13 -57 l0
-55 43 5 c23 3 67 7 97 8 l54 3 22 -240 c13 -132 23 -250 23 -263 1 -22 4 -23
64 -20 l62 3 -3 60 c-1 33 -11 152 -21 265 -10 113 -17 206 -17 207 1 1 33 5
71 8 120 11 117 9 113 63 l-3 47 -50 1 c-27 1 -135 -6 -240 -16z"/>
<path d="M8178 1436 c-54 -20 -81 -40 -121 -88 -53 -65 -71 -126 -71 -243 0
-89 2 -105 26 -150 54 -102 139 -156 258 -163 88 -5 138 7 202 47 84 53 129
153 130 287 1 142 -46 230 -153 289 -46 25 -67 30 -144 32 -59 2 -103 -1 -127
-11z m196 -110 c18 -8 46 -31 62 -52 27 -35 29 -43 29 -133 0 -84 -3 -103 -26
-146 -44 -88 -142 -119 -229 -75 -78 40 -111 131 -90 246 21 112 83 174 172
174 27 0 64 -6 82 -14z"/>
<path d="M8703 1403 c-22 -4 -23 -6 -17 -141 3 -75 9 -218 13 -317 l6 -180 39
-3 c22 -2 50 -1 63 3 l25 6 -4 130 c-3 115 -1 130 14 135 22 7 79 -4 98 -19
21 -17 89 -101 140 -174 l43 -63 79 0 c61 0 77 3 72 13 -38 64 -143 204 -174
229 l-38 33 51 25 c75 37 92 66 92 155 0 80 -13 108 -69 149 -25 19 -42 21
-219 22 -106 1 -202 0 -214 -3z m326 -104 c36 -13 51 -35 51 -76 -1 -61 -47
-82 -182 -83 l-76 0 -4 80 -3 79 65 4 c36 2 77 4 91 5 14 1 40 -3 58 -9z"/>
</g>
</svg>
